<svg width="17" height="21" viewBox="0 0 17 21" fill="none" xmlns="http://www.w3.org/2000/svg">
<path d="M14.6664 19.875H2.3334C2.18929 19.8755 2.04665 19.846 1.91449 19.7885C1.78234 19.7311 1.66355 19.6468 1.56562 19.5411C1.46769 19.4353 1.39276 19.3105 1.34556 19.1743C1.29836 19.0381 1.27992 18.8937 1.2914 18.75L2.1769 7.2915C2.19805 7.02995 2.3171 6.78601 2.51027 6.60842C2.70344 6.43082 2.9565 6.33265 3.2189 6.3335H13.7809C14.0433 6.33253 14.2965 6.43067 14.4896 6.60829C14.6828 6.7859 14.8019 7.02991 14.8229 7.2915L15.7079 18.75C15.7194 18.8936 15.7009 19.038 15.6538 19.1742C15.6066 19.3103 15.5317 19.4352 15.4338 19.5409C15.336 19.6466 15.2172 19.7309 15.0851 19.7884C14.9531 19.8459 14.8105 19.8754 14.6664 19.875Z" stroke="#CB8161" stroke-linecap="round" stroke-linejoin="round"/>
<path d="M5.375 9.4585V4.25C5.375 3.4212 5.70424 2.62634 6.29029 2.04029C6.87634 1.45424 7.6712 1.125 8.5 1.125C9.3288 1.125 10.1237 1.45424 10.7097 2.04029C11.2958 2.62634 11.625 3.4212 11.625 4.25V9.4585" stroke="#CB8161" stroke-linecap="round" stroke-linejoin="round"/>
</svg>
